<?xml version="1.0" standalone="no"?>
<!DOCTYPE svg PUBLIC "-//W3C//DTD SVG 20010904//EN"
 "http://www.w3.org/TR/2001/REC-SVG-20010904/DTD/svg10.dtd">
<svg version="1.0" xmlns="http://www.w3.org/2000/svg"
 width="134.000000pt" height="102.000000pt" viewBox="0 0 134.000000 102.000000"
 preserveAspectRatio="xMidYMid meet">

<g transform="translate(0.000000,102.000000) scale(0.100000,-0.100000)"
fill="#000000" stroke="none">
<path d="M850 740 l0 -160 -126 0 -125 0 3 -27 3 -28 123 -3 122 -3 0 30 0 31
213 2 212 3 0 60 0 60 -87 3 -88 3 0 94 0 95 -125 0 -125 0 0 -160z"/>
<path d="M46 357 c-43 -13 -60 -37 -27 -37 20 0 21 -5 21 -144 0 -136 -1 -145
-20 -151 -44 -14 -15 -25 65 -25 80 0 109 11 65 25 -16 5 -20 15 -20 46 0 38
0 39 38 39 104 0 174 109 127 200 -29 57 -82 74 -137 46 -24 -13 -28 -13 -28
0 0 17 -29 17 -84 1z m153 -63 c36 -46 22 -121 -26 -143 -13 -6 -28 -11 -33
-11 -6 0 -10 40 -10 90 0 89 0 90 24 90 15 0 33 -11 45 -26z"/>
<path d="M363 357 c-47 -11 -59 -37 -18 -37 l25 0 0 -105 0 -105 29 0 c25 0
35 8 63 56 18 30 41 65 50 77 17 21 17 20 18 -55 l0 -78 34 0 c31 0 40 8 110
101 42 55 76 105 76 110 0 27 -22 49 -50 49 -29 0 -30 -1 -30 -53 0 -44 -5
-61 -32 -97 l-33 -45 -3 98 -3 97 -27 0 c-23 0 -34 -12 -77 -82 l-50 -83 -3
83 c-3 91 0 88 -79 69z"/>
<path d="M813 350 c-81 -49 -82 -184 -2 -225 62 -32 189 -8 189 36 0 16 -4 19
-17 13 -10 -4 -36 -9 -58 -12 -32 -3 -44 1 -60 18 -27 30 -28 110 -1 139 29
31 46 27 46 -13 0 -26 5 -35 22 -39 54 -14 82 55 36 87 -32 23 -115 21 -155
-4z"/>
</g>
</svg>
