<?xml version="1.0" standalone="no"?>
<!DOCTYPE svg PUBLIC "-//W3C//DTD SVG 20010904//EN"
 "http://www.w3.org/TR/2001/REC-SVG-20010904/DTD/svg10.dtd">
<svg version="1.0" xmlns="http://www.w3.org/2000/svg"
 width="268.000000pt" height="204.000000pt" viewBox="0 0 268.000000 204.000000"
 preserveAspectRatio="xMidYMid meet">

<g transform="translate(0.000000,204.000000) scale(0.100000,-0.100000)"
fill="#000000" stroke="none">
<path d="M1710 1475 l0 -315 153 0 c85 0 276 3 425 7 l272 6 0 119 0 118 -103
0 c-57 0 -138 3 -180 6 l-77 7 0 183 0 184 -245 0 -245 0 0 -315z"/>
<path d="M1210 1100 l0 -60 245 0 245 0 0 60 0 60 -245 0 -245 0 0 -60z"/>
<path d="M102 717 c-90 -28 -102 -34 -102 -54 0 -20 5 -23 40 -23 l40 0 0
-290 0 -289 -35 -7 c-28 -5 -35 -11 -35 -30 l0 -24 160 0 160 0 0 24 c0 20 -6
25 -40 31 l-40 7 0 83 0 84 73 -1 c96 -1 149 17 207 69 60 54 85 114 85 203
-1 79 -17 131 -58 176 -64 74 -146 85 -247 34 l-60 -30 0 35 c0 44 -10 44
-148 2z m264 -93 c49 -24 68 -65 69 -149 0 -117 -54 -185 -147 -185 l-38 0 0
169 c0 153 2 170 18 174 35 9 65 7 98 -9z"/>
<path d="M1358 734 c-28 -15 -28 -16 -28 -117 l0 -103 -57 -78 -58 -77 -3 185
-2 186 -64 0 -63 0 -94 -156 -94 -157 -3 157 -3 156 -47 0 c-45 0 -90 -8 -175
-31 -31 -8 -38 -14 -35 -32 3 -19 10 -22 50 -25 l48 -3 2 -207 3 -207 62 -3
61 -3 94 156 93 155 5 -152 5 -153 70 0 69 0 114 145 c143 183 172 224 182
261 12 41 -6 86 -41 104 -35 19 -56 18 -91 -1z"/>
<path d="M1697 736 c-112 -31 -185 -118 -194 -230 -7 -87 10 -145 60 -203 58
-64 103 -83 207 -83 62 1 102 7 150 23 l65 23 3 48 c3 44 1 48 -15 41 -10 -4
-40 -16 -68 -27 -127 -50 -219 24 -219 177 1 95 38 160 102 180 21 6 22 4 22
-58 0 -73 8 -85 64 -94 63 -10 116 28 116 83 0 34 -33 82 -70 103 -50 28 -156
36 -223 17z"/>
</g>
</svg>
